# AST/ASF file generated using VICON BodyLanguage
# -----------------------------------------------
:version 1.10
:name VICON
:units
  mass 1.0
  length 0.45
  angle deg
:documentation
   .ast/.asf automatically generated from VICON data using
   VICON BodyBuilder and BodyLanguage model FoxedUp or BRILLIANT.MOD
:root
   order TX TY TZ RX RY RZ
   axis XYZ
   position 0 0 0  
   orientation 0 0 0 
:bonedata
  begin
     id 1 
     name lhipjoint
     direction 0.621036 -0.695554 0.361275 
     length 2.46325 
     axis 0 0 0  XYZ
  end
  begin
     id 2 
     name lfemur
     direction 0.34202 -0.939693 0  
     length 6.54784  
     axis 0 0 20  XYZ
    dof rx ry rz
    limits (-160.0 20.0)
           (-70.0 70.0)
           (-60.0 70.0)
  end
  begin
     id 3 
     name ltibia
     direction 0.34202 -0.939693 0   
     length 7.84737   
     axis 0 0 20   XYZ
    dof rx
    limits (-10.0 170.0)
  end
  begin
     id 4 
     name lfoot
     direction 0.0790693 -0.217241 0.97291   
     length 2.59747   
     axis -90 7.62852e-016 20   XYZ
    dof rx rz
    limits (-45.0 90.0)
           (-70.0 20.0)
  end
  begin
     id 5 
     name ltoes
     direction 1.53572e-011 -4.21898e-011 1   
     length 1.29919   
     axis -90 7.62852e-016 20   XYZ
    dof rx
    limits (-90.0 20.0)
  end
  begin
     id 6 
     name rhipjoint
     direction -0.602353 -0.708375 0.367935   
     length 2.41867  
     axis 0 0 0  XYZ 
  end
  begin
     id 7 
     name rfemur
     direction -0.34202 -0.939693 0   
     length 6.92065   
     axis 0 0 -20   XYZ
    dof rx ry rz
    limits (-160.0 20.0)
           (-70.0 70.0)
           (-70.0 60.0)
  end
  begin
     id 8 
     name rtibia
     direction -0.34202 -0.939693 0   
     length 7.88883   
     axis 0 0 -20   XYZ
    dof rx
    limits (-10.0 170.0)
 end
 begin
     id 9 
     name rfoot
     direction -0.0768692 -0.211196 0.974416   
     length 2.43714  
     axis -90 -7.62852e-016 -20   XYZ
    dof rx rz
    limits (-45.0 90.0)
           (-20.0 70.0)
  end
  begin
     id 10 
     name rtoes
     direction -1.53575e-011 -4.21933e-011 1   
     length 1.22113   
     axis -90 -7.62852e-016 -20   XYZ
    dof rx
    limits (-90.0 20.0)
  end
  begin
     id 11 
     name lowerback
     direction 0.0197937 0.98943 -0.143655   
     length 2.16931   
     axis 0 0 0   XYZ
    dof rx ry rz
    limits (-20.0 45.0)
           (-30.0 30.0)
           (-30.0 30.0)
  end
  begin
     id 12 
     name upperback
     direction -0.00183968 0.999975 0.00684288   
     length 2.17221   
     axis 0 0 0   XYZ
    dof rx ry rz
    limits (-20.0 45.0)
           (-30.0 30.0)
           (-30.0 30.0)
  end
  begin
     id 13 
     name thorax
     direction -0.00950244 0.997208 0.0740685   
     length 2.22549   
     axis 0 0 0   XYZ
    dof rx ry rz
    limits (-20.0 45.0)
           (-30.0 30.0)
           (-30.0 30.0)
  end
  begin
     id 14 
     name lowerneck
     direction 0.0218238 0.996215 0.0841425   
     length 1.77269   
     axis 0 0 0   XYZ
    dof rx ry rz
    limits (-20.0 45.0)
           (-30.0 30.0)
           (-30.0 30.0)
  end
  begin
     id 15 
     name upperneck
     direction -0.00430652 0.994214 -0.107332   
     length 1.76534   
     axis 0 0 0   XYZ
    dof rx ry rz
    limits (-20.0 45.0)
           (-30.0 30.0)
           (-30.0 30.0)
  end
  begin
     id 16
     name head
     direction -0.00328946 0.998959 -0.0454998  
     length 1.82634  
     axis 0 0 0   XYZ
    dof rx ry rz
    limits (-20.0 45.0)
           (-30.0 30.0)
           (-30.0 30.0)
  end
  begin
     id 17 
     name lclavicle
     direction 0.970962 0.239191 0.00450212  
     length 3.84872  
     axis 0 0 0   XYZ
    dof ry rz
    limits (-20.0 10.0)
           (0.0 20.0)
  end
  begin
     id 18 
     name lhumerus
     direction 1 -4.48966e-011 5.74696e-028   
     length 5.22771   
     axis 180 -30 -90   XYZ
    dof rx ry rz
    limits (-60.0 90.0)
           (-90.0 90.0)
           (-90.0 90.0)
  end
  begin
     id 19
     name lradius
     direction 1 -4.4896e-011 4.25109e-027   
     length 3.45251   
     axis 180 -30 -90   XYZ
    dof rx
    limits (-10.0 170.0)
  end
  begin
     id 20
     name lwrist
     direction 1 -4.48971e-011 1.15382e-027   
     length 1.72626   
     axis -5.52449e-016 90 90   XYZ
    dof ry
    limits (-180.0 0.0)
 end
  begin
     id 21 
     name lhand
     direction 1 -4.49034e-011 2.30765e-027   
     length 0.552119   
     axis -1.47248e-015 90 90   XYZ
    dof rx rz
    limits (-90.0 90.0)
           (-45.0 45.0)
  end
  begin
     id 22 
     name lfingers
     direction 1 -4.48951e-011 4.61529e-027   
     length 0.445133   
     axis -2.94495e-015 90 90   XYZ
    dof rx
    limits (0.0 90.0)
  end
  begin
     id 23
     name lthumb
     direction 0.707107 -6.34991e-011 0.707107   
     length 0.639124   
     axis -90 45 2.85299e-015   XYZ
    dof rx rz
    limits (-45.0 45.0)
           (-45.0 45.0)
  end
  begin
     id 24 
     name rclavicle
     direction -0.97424 0.222511 -0.0366699   
     length 3.73439  
     axis 0 0 0   XYZ 
    dof ry rz
    limits (-10.0 20.0)
           (-20.0 0.0)
  end
  begin
     id 25 
     name rhumerus
     direction -1 -4.48956e-011 -4.97258e-028  
     length 5.2398   
     axis 180 30 90   XYZ
    dof rx ry rz
    limits (-90.0 60.0)
           (-90.0 90.0)
           (-90.0 90.0)
  end
  begin
     id 26 
     name rradius
     direction -1 -4.4897e-011 -1.72611e-027   
     length 3.48042   
     axis 180 30 90   XYZ
    dof rx
    limits (-10.0 170.0)
  end
  begin
     id 27 
     name rwrist
     direction -1 -4.48976e-011 1.15382e-027   
     length 1.74021   
     axis -5.52449e-016 -90 -90   XYZ
    dof ry
    limits (-180.0 0.0)
  end
  begin
     id 28
     name rhand
     direction -1 -4.48963e-011 2.30765e-027   
     length 0.618713   
     axis -1.47248e-015 -90 -90   XYZ
    dof rx rz
    limits (-90.0 90.0)
           (-45.0 45.0)
  end
  begin
     id 29
     name rfingers
     direction -1 -4.4888e-011 4.61529e-027   
     length 0.498823   
     axis -2.94495e-015 -90 -90   XYZ
    dof rx
    limits (0.0 90.0)
  end
  begin
     id 30
     name rthumb
     direction -0.707107 -6.34968e-011 0.707107   
     length 0.716213   
     axis -90 -45 -2.85299e-015   XYZ
    dof rx rz
    limits (-45.0 45.0)
           (-45.0 45.0)
  end
:hierarchy
  begin
    root lhipjoint rhipjoint lowerback
    lhipjoint lfemur
    lfemur ltibia
    ltibia lfoot
    lfoot ltoes
    rhipjoint rfemur
    rfemur rtibia
    rtibia rfoot
    rfoot rtoes
    lowerback upperback
    upperback thorax
    thorax lowerneck lclavicle rclavicle
    lowerneck upperneck
    upperneck head
    lclavicle lhumerus
    lhumerus lradius
    lradius lwrist
    lwrist lhand lthumb
    lhand lfingers
    rclavicle rhumerus
    rhumerus rradius
    rradius rwrist
    rwrist rhand rthumb
    rhand rfingers
  end

#!OML:ASF G:\JayActor3\Patient Classification 1\Patient 1\Session 5\male.ASF
:FULLY-SPECIFIED
:DEGREES
222
root 43.0317 17.3356 -3.76001 -69.9638 85.8615 -68.3402
lowerback 2.60336 -0.962354 4.52814
upperback 1.6333 -1.17029 -0.34778
thorax 0.121382 -0.545861 -2.86664
lowerneck -7.42505 0.346406 1.42784
upperneck 14.4564 0.21371 1.3895
head 5.58347 0.336581 0.220383
rclavicle 5.09386e-015 4.77083e-015
rhumerus -34.6583 -3.06698 -86.4116
rradius 32.8772
rwrist -1.57157
rhand -22.0842 -34.5627
rfingers 7.12502
rthumb 4.32748 -64.4984
lclavicle 5.09386e-015 4.77083e-015
lhumerus -37.1619 7.55502 80.6358
lradius 24.3072
lwrist 14.7659
lhand -15.7546 10.3285
lfingers 7.12502
lthumb 10.4369 40.0494
rfemur -7.36385 1.57048 27.8076
rtibia 35.2233
rfoot 1.17214 -7.76949
rtoes -8.2199
lfemur -12.8358 10.0083 -14.3707
ltibia 37.5491
lfoot -0.92994 2.81065
ltoes -25.9653
223
root 42.9602 17.3362 -3.75558 -69.2907 85.9111 -67.6268
lowerback 2.49431 -0.977268 4.50436
upperback 1.61151 -1.19647 -0.355414
thorax 0.158128 -0.558955 -2.86203
lowerneck -7.45472 0.373511 1.44872
upperneck 14.6811 0.256401 1.34107
head 5.65884 0.359492 0.205685
rclavicle -4.69629e-015 -3.18055e-015
rhumerus -34.7759 -3.09148 -86.3352
rradius 32.8412
rwrist -1.57661
rhand -22.0676 -34.6111
rfingers 7.12502
rthumb 4.34348 -64.5465
lclavicle -4.69629e-015 -3.18055e-015
lhumerus -37.2432 7.70046 80.5557
lradius 24.1529
lwrist 14.5609
lhand -15.7625 10.3224
lfingers 7.12502
lthumb 10.4293 40.0437
rfemur -7.64541 1.63472 27.7057
rtibia 35.3399
rfoot 1.26258 -7.58594
rtoes -8.06938
lfemur -12.2927 10.0352 -14.3487
ltibia 39.1059
lfoot -0.938344 2.58765
ltoes -26.0108
224
root 42.8896 17.3392 -3.7516 -68.4995 85.9541 -66.8018
lowerback 2.37051 -0.989932 4.47869
upperback 1.59041 -1.22039 -0.360286
thorax 0.204137 -0.570732 -2.85389
lowerneck -7.48344 0.402821 1.47268
upperneck 14.8886 0.302459 1.2882
head 5.72885 0.383499 0.189286
rclavicle 2.25124e-014 -7.55382e-015
rhumerus -34.899 -3.10476 -86.2634
rradius 32.8252
rwrist -1.57468
rhand -22.051 -34.6793
rfingers 7.12502
rthumb 4.35956 -64.6144
lclavicle 2.25124e-014 -7.55382e-015
lhumerus -37.3135 7.86624 80.4662
lradius 24.0096
lwrist 14.3723
lhand -15.7933 10.3129
lfingers 7.12502
lthumb 10.3995 40.0357
rfemur -7.89612 1.72024 27.6031
rtibia 35.3874
rfoot 1.38237 -7.40893
rtoes -7.88479
lfemur -11.6728 10.031 -14.3152
ltibia 40.5234
lfoot -0.840604 2.25459
ltoes -25.9845
225
root 42.8201 17.3448 -3.74815 -67.639 85.9925 -65.9122
lowerback 2.23499 -1.00149 4.45018
upperback 1.56874 -1.2434 -0.362198
thorax 0.256346 -0.581967 -2.84143
lowerneck -7.51133 0.433689 1.50223
upperneck 15.0824 0.351139 1.22789
head 5.79461 0.408223 0.169784
rclavicle 4.36084e-015 -5.96354e-015
rhumerus -35.03 -3.11177 -86.1923
rradius 32.8239
rwrist -1.57286
rhand -22.0471 -34.7344
rfingers 7.12502
rthumb 4.36324 -64.6695
lclavicle 4.36084e-015 -5.96354e-015
lhumerus -37.3801 8.0427 80.3722
lradius 23.8874
lwrist 14.2109
lhand -15.8359 10.3068
lfingers 7.12502
lthumb 10.3585 40.0316
rfemur -8.10891 1.81559 27.4976
rtibia 35.3601
rfoot 1.54159 -7.22858
rtoes -7.73103
lfemur -10.9764 9.99717 -14.2739
ltibia 41.7925
lfoot -0.625573 1.83971
ltoes -25.8981
226
root 42.7514 17.3527 -3.74508 -66.7147 86.0244 -64.9654
lowerback 2.09338 -1.01136 4.41931
upperback 1.54374 -1.26438 -0.360447
thorax 0.308879 -0.592291 -2.82407
lowerneck -7.53491 0.46469 1.53069
upperneck 15.2579 0.400398 1.16702
head 5.85397 0.432718 0.150265
rclavicle 1.73937e-015 1.19271e-015
rhumerus -35.165 -3.12317 -86.1166
rradius 32.8285
rwrist -1.56597
rhand -22.0458 -34.7821
rfingers 7.12502
rthumb 4.36457 -64.7171
lclavicle 1.73937e-015 1.19271e-015
lhumerus -37.4391 8.2262 80.2758
lradius 23.7775
lwrist 14.0768
lhand -15.876 10.308
lfingers 7.12502
lthumb 10.3198 40.0348
rfemur -8.28813 1.92184 27.3926
rtibia 35.2601
rfoot 1.73069 -7.05215
rtoes -7.59024
lfemur -10.2103 9.93848 -14.2255
ltibia 42.9089
lfoot -0.279898 1.37182
ltoes -25.8282
